HIERARCHY
ROOT hip
{
	OFFSET 0.000000 0.000000 0.000000 
	CHANNELS 6 Xposition Yposition Zposition Zrotation Xrotation Yrotation
	JOINT abdomen
	{
		OFFSET 0.000000 3.402643 0.000000 
		CHANNELS 3 Zrotation Xrotation Yrotation
		JOINT chest
		{
			OFFSET 0.000000 8.438565 -0.680529 
			CHANNELS 3 Zrotation Xrotation Yrotation
			JOINT neck
			{
				OFFSET 0.000000 10.207942 -0.272212 
				CHANNELS 3 Zrotation Xrotation Yrotation
				JOINT head
				{
					OFFSET 0.000000 3.130431 0.000000 
					CHANNELS 3 Zrotation Xrotation Yrotation
					End Site
					{
						OFFSET 0.000000 3.130435 0.000000 
					}
				}
			}
			JOINT lCollar
			{
				OFFSET 3.470700 6.669187 -0.816635 
				CHANNELS 3 Zrotation Xrotation Yrotation
				JOINT lShldr
				{
					OFFSET 3.198488 0.000000 0.000000 
					CHANNELS 3 Zrotation Xrotation Yrotation
					JOINT lForeArm
					{
						OFFSET 10.139888 0.000000 0.000000 
						CHANNELS 3 Zrotation Xrotation Yrotation
						JOINT lHand
						{
							OFFSET 8.370511 0.000000 0.000000 
							CHANNELS 3 Zrotation Xrotation Yrotation
							End Site
							{
								OFFSET 4.083176 0.000000 0.000000 
							}
						}
					}
				}
			}
			JOINT rCollar
			{
				OFFSET -3.470700 6.669187 -0.816635 
				CHANNELS 3 Zrotation Xrotation Yrotation
				JOINT rShldr
				{
					OFFSET -3.198488 0.000000 0.000000 
					CHANNELS 3 Zrotation Xrotation Yrotation
					JOINT rForeArm
					{
						OFFSET -10.139888 0.000000 0.000000 
						CHANNELS 3 Zrotation Xrotation Yrotation
						JOINT rHand
						{
							OFFSET -8.370511 0.000000 0.000000 
							CHANNELS 3 Zrotation Xrotation Yrotation
							End Site
							{
								OFFSET -4.083176 0.000000 0.000000 
							}
						}
					}
				}
			}
		}
	}
	JOINT lThigh
	{
		OFFSET 5.308129 -1.633274 1.361059 
		CHANNELS 3 Zrotation Xrotation Yrotation
		JOINT lShin
		{
			OFFSET -2.041588 -20.007561 0.000000 
			CHANNELS 3 Zrotation Xrotation Yrotation
			JOINT lFoot
			{
				OFFSET 0.000000 -19.190928 -1.224953 
				CHANNELS 3 Zrotation Xrotation Yrotation
				End Site
				{
					OFFSET 0.000000 -2.449906 4.627600 
				}
			}
		}
	}
	JOINT rThigh
	{
		OFFSET -5.308129 -1.633274 1.361059 
		CHANNELS 3 Zrotation Xrotation Yrotation
		JOINT rShin
		{
			OFFSET 2.041588 -20.007561 0.000000 
			CHANNELS 3 Zrotation Xrotation Yrotation
			JOINT rFoot
			{
				OFFSET 0.000000 -19.190928 -1.224953 
				CHANNELS 3 Zrotation Xrotation Yrotation
				End Site
				{
					OFFSET 0.000000 -2.449906 4.627600 
				}
			}
		}
	}
}
MOTION
Frames: 6
Frame Time: 0.033333
0.653668 50.818695 -2.887014 -2.822583 0.858333 -2.447917 -0.000000 -0.000002 -0.000000 0.459069 1.103482 -17.411184 25.419807 31.353819 -21.712137 -0.954937 -15.993991 -0.145955 -2.000757 -0.069240 1.990978 -73.129517 -18.016178 -2.885744 -0.034344 10.895506 -3.023128 -28.477345 8.278987 -1.282908 1.990970 -0.069577 -2.000746 75.664528 7.379719 -6.814526 -1.889543 14.917253 8.733849 21.254902 -7.684993 0.620815 13.035659 -11.526590 14.541256 -4.110409 24.331781 1.497571 -2.580608 -10.781994 -4.869337 -2.401239 -1.793407 2.038965 3.171194 10.201796 1.969560 -2.870474 -14.661149 -12.749489 
0.653893 50.818260 -2.886970 -2.812809 0.848589 -2.448544 -0.000000 -0.000002 -0.000000 0.371143 0.937480 -17.808744 24.734514 31.843861 -20.741314 -0.954937 -15.993991 -0.145955 -2.000757 -0.069240 1.990978 -73.001472 -18.285326 -2.468467 -0.029239 10.885760 -3.052863 -28.423004 8.279296 -1.253301 1.990970 -0.069577 -2.000746 75.685608 8.040222 -6.756170 -1.869486 14.919904 8.693495 21.297916 -7.684948 0.650387 13.125184 -11.587330 14.576996 -4.108315 24.400429 1.467758 -2.644337 -10.768579 -4.899822 -2.391143 -1.754269 2.023788 3.161389 10.183720 1.989858 -2.901016 -14.693330 -12.764618 
0.654117 50.817722 -2.886936 -2.812809 0.848589 -2.448544 -0.000000 -0.000002 -0.000000 0.263696 0.771478 -18.148075 23.818686 32.378147 -19.520941 -0.954937 -15.993991 -0.145955 -2.000757 -0.069240 1.990978 -72.888031 -18.446575 -1.997188 -0.023601 10.885763 -3.082697 -28.378645 8.269418 -1.223670 1.990970 -0.069577 -2.000746 75.682434 8.749317 -6.640110 -1.842731 14.922981 8.552032 21.443733 -7.675182 0.719347 13.145728 -11.531145 14.590628 -4.118968 24.408979 1.479876 -2.673622 -10.788042 -4.918810 -2.361526 -1.714927 2.049387 3.143157 10.179592 1.972005 -2.908634 -14.710875 -12.756092 
0.654343 50.817268 -2.886891 -2.812802 0.838835 -2.449022 -0.000000 -0.000002 -0.000000 0.146492 0.595704 -18.458553 22.675920 32.941555 -18.054266 -0.954937 -15.993991 -0.145955 -2.000757 -0.069240 1.990978 -72.776367 -18.539135 -1.483237 -0.014019 10.896077 -3.182248 -28.264486 8.269694 -1.134854 1.990970 -0.069577 -2.000746 75.676605 9.489324 -6.505410 -1.798501 14.928256 8.380308 21.612999 -7.665104 0.817851 13.157942 -11.476327 14.554315 -4.112075 24.380360 1.478378 -2.698989 -10.788426 -4.908432 -2.343700 -1.667596 2.025663 3.161464 10.184001 1.980092 -2.926781 -14.722317 -12.768892 
0.654784 50.816750 -2.886813 -2.803035 0.838838 -2.449643 -0.000000 -0.000002 -0.000000 0.039064 0.410156 -18.720984 21.332611 33.513309 -16.338238 -0.954937 -15.993991 -0.145955 -2.000757 -0.069240 1.990978 -72.664825 -18.552473 -0.947693 0.000460 10.886434 -3.261699 -28.124025 8.260412 -1.026268 1.990970 -0.069577 -2.000746 75.673019 10.289090 -6.312860 -1.749039 14.933954 8.188363 21.832373 -7.655262 0.926221 13.191590 -11.452767 14.555034 -4.112148 24.380697 1.488143 -2.728337 -10.796533 -4.928148 -2.319021 -1.634705 2.030742 3.161619 10.184572 1.960556 -2.964851 -14.771418 -12.758320 
0.655228 50.816113 -2.886733 -2.803035 0.838838 -2.449643 -0.000000 -0.000002 -0.000000 -0.087892 0.234375 -18.935213 19.779484 34.068768 -14.407557 -0.954937 -15.993991 -0.145955 -2.000757 -0.069240 1.990978 -72.562233 -18.495823 -0.350116 0.011364 10.886874 -3.371090 -27.954226 8.250913 -0.917698 1.990970 -0.069577 -2.000746 75.661880 11.159331 -6.072258 -1.689143 14.940675 7.956004 22.075359 -7.654946 1.064167 13.191449 -11.406318 14.556777 -4.111422 24.360996 1.488007 -2.781164 -10.819178 -4.931435 -2.302136 -1.607529 2.034467 3.171271 10.202078 1.959793 -2.962563 -14.792237 -12.749462 
